<mxfile host="65bd71144e">
    <diagram id="C7XLNZ6NC_hPwQsxDag4" name="Page-1">
        <mxGraphModel dx="1168" dy="862" grid="1" gridSize="10" guides="1" tooltips="1" connect="1" arrows="1" fold="1" page="1" pageScale="1" pageWidth="850" pageHeight="1100" math="0" shadow="0">
            <root>
                <mxCell id="0"/>
                <mxCell id="1" parent="0"/>
                <mxCell id="2" value="Logo" style="whiteSpace=wrap;html=1;" parent="1" vertex="1">
                    <mxGeometry x="20" y="99" width="100" height="90" as="geometry"/>
                </mxCell>
                <mxCell id="3" value="Park Name" style="whiteSpace=wrap;html=1;" parent="1" vertex="1">
                    <mxGeometry x="170" y="114" width="120" height="60" as="geometry"/>
                </mxCell>
                <mxCell id="4" value="Main phone number&lt;br&gt;email address&lt;br&gt;street address&lt;br&gt;" style="whiteSpace=wrap;html=1;" parent="1" vertex="1">
                    <mxGeometry x="215" y="873" width="460" height="60" as="geometry"/>
                </mxCell>
                <mxCell id="5" value="" style="whiteSpace=wrap;html=1;" parent="1" vertex="1">
                    <mxGeometry x="10" y="323" width="600" height="200" as="geometry"/>
                </mxCell>
                <mxCell id="7" value="&lt;div style=&quot;text-align: left;&quot;&gt;&lt;span style=&quot;background-color: initial;&quot;&gt;lodging&lt;/span&gt;&lt;br&gt;&lt;/div&gt;&lt;div style=&quot;text-align: left;&quot;&gt;parking&lt;/div&gt;&lt;div style=&quot;text-align: left;&quot;&gt;information&lt;/div&gt;&lt;div style=&quot;text-align: left;&quot;&gt;picnkicking&lt;/div&gt;" style="whiteSpace=wrap;html=1;" parent="1" vertex="1">
                    <mxGeometry x="50" y="373" width="150" height="100" as="geometry"/>
                </mxCell>
                <mxCell id="15" value="" style="whiteSpace=wrap;html=1;" parent="1" vertex="1">
                    <mxGeometry x="10" y="563" width="600" height="200" as="geometry"/>
                </mxCell>
                <mxCell id="19" value="LODGE" style="text;html=1;align=center;verticalAlign=middle;resizable=0;points=[];autosize=1;strokeColor=none;fillColor=none;" parent="1" vertex="1">
                    <mxGeometry x="90" y="343" width="70" height="30" as="geometry"/>
                </mxCell>
                <mxCell id="20" value="LOST WOLF HIKING TRAIL" style="text;html=1;align=center;verticalAlign=middle;resizable=0;points=[];autosize=1;strokeColor=none;fillColor=none;" parent="1" vertex="1">
                    <mxGeometry x="230" y="343" width="170" height="30" as="geometry"/>
                </mxCell>
                <mxCell id="21" value="CAMPGROUND" style="text;html=1;align=center;verticalAlign=middle;resizable=0;points=[];autosize=1;strokeColor=none;fillColor=none;" parent="1" vertex="1">
                    <mxGeometry x="255" y="573" width="110" height="30" as="geometry"/>
                </mxCell>
                <mxCell id="22" value="PINES BLUFFS TRAILS" style="text;html=1;align=center;verticalAlign=middle;resizable=0;points=[];autosize=1;strokeColor=none;fillColor=none;" parent="1" vertex="1">
                    <mxGeometry x="430" y="573" width="150" height="30" as="geometry"/>
                </mxCell>
                <mxCell id="24" value="GRANDER RIVER" style="text;html=1;align=center;verticalAlign=middle;resizable=0;points=[];autosize=1;strokeColor=none;fillColor=none;" parent="1" vertex="1">
                    <mxGeometry x="65" y="573" width="120" height="30" as="geometry"/>
                </mxCell>
                <mxCell id="25" value="CHAMFORT RIVER" style="text;html=1;align=center;verticalAlign=middle;resizable=0;points=[];autosize=1;strokeColor=none;fillColor=none;" parent="1" vertex="1">
                    <mxGeometry x="440" y="343" width="130" height="30" as="geometry"/>
                </mxCell>
                <mxCell id="29" value="&lt;div style=&quot;text-align: left;&quot;&gt;hiking&lt;/div&gt;&lt;div style=&quot;text-align: left;&quot;&gt;picnicking&lt;/div&gt;&lt;div style=&quot;text-align: left;&quot;&gt;rock climbing&lt;/div&gt;" style="whiteSpace=wrap;html=1;" parent="1" vertex="1">
                    <mxGeometry x="235" y="373" width="150" height="100" as="geometry"/>
                </mxCell>
                <mxCell id="30" value="&lt;div style=&quot;text-align: left;&quot;&gt;rafting&lt;/div&gt;&lt;div style=&quot;text-align: left;&quot;&gt;canoeing&lt;/div&gt;&lt;div style=&quot;text-align: left;&quot;&gt;fishing&lt;/div&gt;" style="whiteSpace=wrap;html=1;" parent="1" vertex="1">
                    <mxGeometry x="430" y="373" width="150" height="100" as="geometry"/>
                </mxCell>
                <mxCell id="31" value="&lt;div style=&quot;text-align: left;&quot;&gt;fishing&lt;/div&gt;&lt;div style=&quot;text-align: left;&quot;&gt;hiking&lt;/div&gt;" style="whiteSpace=wrap;html=1;" parent="1" vertex="1">
                    <mxGeometry x="50" y="603" width="150" height="100" as="geometry"/>
                </mxCell>
                <mxCell id="32" value="&lt;div style=&quot;text-align: left;&quot;&gt;hiking&lt;/div&gt;&lt;div style=&quot;text-align: left;&quot;&gt;picnicking&lt;/div&gt;&lt;div style=&quot;text-align: left;&quot;&gt;zip lines&lt;/div&gt;" style="whiteSpace=wrap;html=1;" parent="1" vertex="1">
                    <mxGeometry x="430" y="603" width="150" height="100" as="geometry"/>
                </mxCell>
                <mxCell id="33" value="&lt;div style=&quot;&quot;&gt;&lt;span style=&quot;background-color: initial;&quot;&gt;&lt;span style=&quot;white-space: pre;&quot;&gt;&#9;&lt;/span&gt;&lt;span style=&quot;white-space: pre;&quot;&gt;&#9;&lt;/span&gt;information&lt;/span&gt;&lt;br&gt;&lt;/div&gt;&lt;div style=&quot;&quot;&gt;&lt;span style=&quot;white-space: pre;&quot;&gt;&#9;&lt;/span&gt;&lt;span style=&quot;white-space: pre;&quot;&gt;&#9;&lt;/span&gt;lodging&lt;/div&gt;&lt;div style=&quot;&quot;&gt;&lt;span style=&quot;white-space: pre;&quot;&gt;&#9;&lt;/span&gt;&lt;span style=&quot;white-space: pre;&quot;&gt;&#9;&lt;/span&gt;parking&lt;/div&gt;" style="whiteSpace=wrap;html=1;align=left;" parent="1" vertex="1">
                    <mxGeometry x="240" y="603" width="145" height="100" as="geometry"/>
                </mxCell>
                <mxCell id="35" value="" style="whiteSpace=wrap;html=1;" parent="1" vertex="1">
                    <mxGeometry x="640" y="213" width="200" height="550" as="geometry"/>
                </mxCell>
                <mxCell id="36" value="CURRENT PARK GUEST NAMES" style="text;html=1;align=center;verticalAlign=middle;resizable=0;points=[];autosize=1;strokeColor=none;fillColor=none;" parent="1" vertex="1">
                    <mxGeometry x="635" y="223" width="210" height="30" as="geometry"/>
                </mxCell>
                <mxCell id="37" value="" style="whiteSpace=wrap;html=1;" vertex="1" parent="1">
                    <mxGeometry x="10" y="213" width="600" height="70" as="geometry"/>
                </mxCell>
                <mxCell id="39" value="LIST OF SERVICES:" style="text;html=1;align=center;verticalAlign=middle;resizable=0;points=[];autosize=1;strokeColor=none;fillColor=none;" vertex="1" parent="1">
                    <mxGeometry x="10" y="223" width="140" height="30" as="geometry"/>
                </mxCell>
            </root>
        </mxGraphModel>
    </diagram>
</mxfile>